0
SECTION
2
HEADER
9
$INSUNITS
70
4
9
$ACADVER
1
AC1014
9
$HANDSEED
5
FFFF
0
ENDSEC
0
SECTION
2
TABLES
0
TABLE
2
VPORT
5
8
100
AcDbSymbolTable
0
ENDTAB
0
TABLE
2
LTYPE
5
5
100
AcDbSymbolTable
0
LTYPE
5
14
100
AcDbSymbolTableRecord
100
AcDbLinetypeTableRecord
2
BYBLOCK
70
0
0
LTYPE
5
15
100
AcDbSymbolTableRecord
100
AcDbLinetypeTableRecord
2
BYLAYER
70
0
0
ENDTAB
0
TABLE
2
LAYER
5
2
100
AcDbSymbolTable
70
2
0
LAYER
5
50
100
AcDbSymbolTableRecord
100
AcDbLayerTableRecord
2
0
70
0
6
CONTINUOUS
0
ENDTAB
0
TABLE
2
STYLE
5
3
100
AcDbSymbolTable
70
1
0
STYLE
5
11
100
AcDbSymbolTableRecord
100
AcDbTextStyleTableRecord
2
STANDARD
70
0
0
ENDTAB
0
TABLE
2
VIEW
5
6
100
AcDbSymbolTable
70
0
0
ENDTAB
0
TABLE
2
UCS
5
7
100
AcDbSymbolTable
70
0
0
ENDTAB
0
TABLE
2
APPID
5
9
100
AcDbSymbolTable
70
2
0
APPID
5
12
100
AcDbSymbolTableRecord
100
AcDbRegAppTableRecord
2
ACAD
70
0
0
ENDTAB
0
TABLE
2
DIMSTYLE
5
A
100
AcDbSymbolTable
70
1
0
ENDTAB
0
TABLE
2
BLOCK_RECORD
5
1
100
AcDbSymbolTable
70
1
0
BLOCK_RECORD
5
1F
100
AcDbSymbolTableRecord
100
AcDbBlockTableRecord
2
*MODEL_SPACE
0
BLOCK_RECORD
5
1B
100
AcDbSymbolTableRecord
100
AcDbBlockTableRecord
2
*PAPER_SPACE
0
ENDTAB
0
ENDSEC
0
SECTION
2
BLOCKS
0
BLOCK
5
20
100
AcDbEntity
100
AcDbBlockBegin
2
*MODEL_SPACE
0
ENDBLK
5
21
100
AcDbEntity
100
AcDbBlockEnd
0
BLOCK
5
1C
100
AcDbEntity
100
AcDbBlockBegin
2
*PAPER_SPACE
0
ENDBLK
5
1D
100
AcDbEntity
100
AcDbBlockEnd
0
ENDSEC
0
SECTION
2
ENTITIES
0
CIRCLE
5
100
100
AcDbEntity
8
0
100
AcDbCircle
10
6.2500000000001048
20
237.89501501630056
30
0
40
2.4999999999999982
210
0
220
-0
230
1
0
CIRCLE
5
101
100
AcDbEntity
8
0
100
AcDbCircle
10
43.750000000000107
20
237.89501501630053
30
0
40
2.4999999999999982
210
0
220
-0
230
1
0
CIRCLE
5
102
100
AcDbEntity
8
0
100
AcDbCircle
10
43.750000000000064
20
200.39501501630053
30
0
40
2.4999999999999982
210
0
220
-0
230
1
0
CIRCLE
5
103
100
AcDbEntity
8
0
100
AcDbCircle
10
6.2500000000000551
20
200.39501501630056
30
0
40
2.4999999999999982
210
0
220
-0
230
1
0
LWPOLYLINE
5
104
100
AcDbEntity
8
0
100
AcDbPolyline
90
4
70
1
43
0.0
10
13.999998942017555
20
-3.9000000149011615
10
13.999998942017555
20
-1.0000000149011612
10
-1.0000010579824448
20
-1.0000000149011612
10
-1.0000010579824448
20
-3.9000000149011615
0
LWPOLYLINE
5
105
100
AcDbEntity
8
0
100
AcDbPolyline
90
4
70
1
43
0.0
10
59.125
20
156.25
10
59.125
20
157.5
10
41.125
20
157.5
10
41.125
20
156.25
0
LWPOLYLINE
5
106
100
AcDbEntity
8
0
100
AcDbPolyline
90
4
70
1
43
0.0
10
20.624999999999993
20
156.25
10
20.624999999999993
20
157.5
10
2.6249999999999929
20
157.5
10
2.6249999999999929
20
156.25
0
LWPOLYLINE
5
107
100
AcDbEntity
8
0
100
AcDbPolyline
90
4
70
1
43
0.0
10
12.25
20
163.75
10
30.25
20
163.75
10
30.25
20
165
10
12.25
20
165
0
LWPOLYLINE
5
108
100
AcDbEntity
8
0
100
AcDbPolyline
90
4
70
1
43
0.0
10
50.00000074505806
20
-3.9000000149011611
10
50.00000074505806
20
-1.0000000149011612
10
35.00000074505806
20
-1.0000000149011612
10
35.00000074505806
20
-3.9000000149011611
0
LWPOLYLINE
5
109
100
AcDbEntity
8
0
100
AcDbPolyline
90
52
70
1
43
0.0
10
-7.0000000000000018
20
128.75
10
49.5
20
128.75
10
49.5
20
130
10
45.5
20
130
10
45.5
20
131.25
10
59.125
20
131.25
10
59.125
20
132.5
10
45.5
20
132.5
10
45.5
20
133.75
10
49.5
20
133.75
10
49.5
20
135
10
45.5
20
135
10
45.5
20
136.25
10
59.125
20
136.25
10
59.125
20
137.5
10
45.5
20
137.5
10
45.5
20
138.75
10
49.5
20
138.75
10
49.5
20
140
10
45.5
20
140
10
45.5
20
141.25
10
59.125
20
141.25
10
59.125
20
142.5
10
45.5
20
142.5
10
45.5
20
143.75
10
49.5
20
143.75
10
49.5
20
145
10
-7.0000000000000018
20
145
10
-7.0000000000000018
20
143.75
10
3.4999999999999987
20
143.75
10
3.4999999999999987
20
142.5
10
2.6249999999999929
20
142.5
10
2.6249999999999929
20
141.25
10
3.4999999999999987
20
141.25
10
3.4999999999999987
20
140
10
-7.0000000000000018
20
140
10
-7.0000000000000018
20
138.75
10
3.4999999999999987
20
138.75
10
3.4999999999999987
20
137.5
10
2.6249999999999929
20
137.5
10
2.6249999999999929
20
136.25
10
3.4999999999999964
20
136.25
10
3.4999999999999964
20
135
10
-7.0000000000000018
20
135
10
-7.0000000000000018
20
133.75
10
3.4999999999999964
20
133.75
10
3.4999999999999964
20
132.5
10
2.6249999999999929
20
132.5
10
2.6249999999999929
20
131.25
10
3.4999999999999964
20
131.25
10
3.4999999999999964
20
130
10
-7.0000000000000018
20
130
0
LWPOLYLINE
5
110
100
AcDbEntity
8
0
100
AcDbPolyline
90
4
70
1
43
0.0
10
12.25
20
103.75
10
30.25
20
103.75
10
30.25
20
105
10
12.25
20
105
0
LWPOLYLINE
5
111
100
AcDbEntity
8
0
100
AcDbPolyline
90
4
70
1
43
0.0
10
-7.0000000000000018
20
105
10
-7.0000000000000018
20
103.75
10
10.999999999999996
20
103.75
10
10.999999999999996
20
105
0
LWPOLYLINE
5
112
100
AcDbEntity
8
0
100
AcDbPolyline
90
4
70
1
43
0.0
10
49.5
20
103.75
10
49.5
20
105
10
31.500000000000004
20
105
10
31.500000000000004
20
103.75
0
LWPOLYLINE
5
113
100
AcDbEntity
8
0
100
AcDbPolyline
90
4
70
1
43
0.0
10
39.874999999999993
20
101.25
10
39.874999999999993
20
102.5
10
21.874999999999996
20
102.5
10
21.874999999999996
20
101.25
0
LWPOLYLINE
5
114
100
AcDbEntity
8
0
100
AcDbPolyline
90
4
70
1
43
0.0
10
68.75
20
103.75
10
68.75
20
105
10
50.75
20
105
10
50.75
20
103.75
0
LWPOLYLINE
5
115
100
AcDbEntity
8
0
100
AcDbPolyline
90
4
70
1
43
0.0
10
-16.625000000000007
20
102.5
10
-16.625000000000007
20
101.25
10
1.3749999999999929
20
101.25
10
1.3749999999999929
20
102.5
0
LWPOLYLINE
5
116
100
AcDbEntity
8
0
100
AcDbPolyline
90
4
70
1
43
0.0
10
59.125
20
101.25
10
59.125
20
102.5
10
41.125
20
102.5
10
41.125
20
101.25
0
LWPOLYLINE
5
117
100
AcDbEntity
8
0
100
AcDbPolyline
90
4
70
1
43
0.0
10
20.624999999999993
20
101.25
10
20.624999999999993
20
102.5
10
2.6249999999999929
20
102.5
10
2.6249999999999929
20
101.25
0
LWPOLYLINE
5
118
100
AcDbEntity
8
0
100
AcDbPolyline
90
4
70
1
43
0.0
10
12.25
20
108.75
10
30.25
20
108.75
10
30.25
20
110
10
12.25
20
110
0
LWPOLYLINE
5
119
100
AcDbEntity
8
0
100
AcDbPolyline
90
4
70
1
43
0.0
10
-7.0000000000000018
20
110
10
-7.0000000000000018
20
108.75
10
10.999999999999996
20
108.75
10
10.999999999999996
20
110
0
LWPOLYLINE
5
120
100
AcDbEntity
8
0
100
AcDbPolyline
90
4
70
1
43
0.0
10
49.5
20
108.75
10
49.5
20
110
10
31.500000000000004
20
110
10
31.500000000000004
20
108.75
0
LWPOLYLINE
5
121
100
AcDbEntity
8
0
100
AcDbPolyline
90
4
70
1
43
0.0
10
39.874999999999993
20
106.25
10
39.874999999999993
20
107.5
10
21.874999999999996
20
107.5
10
21.874999999999996
20
106.25
0
LWPOLYLINE
5
122
100
AcDbEntity
8
0
100
AcDbPolyline
90
4
70
1
43
0.0
10
68.75
20
108.75
10
68.75
20
110
10
50.75
20
110
10
50.75
20
108.75
0
LWPOLYLINE
5
123
100
AcDbEntity
8
0
100
AcDbPolyline
90
4
70
1
43
0.0
10
-16.625000000000007
20
107.5
10
-16.625000000000007
20
106.25
10
1.3749999999999929
20
106.25
10
1.3749999999999929
20
107.5
0
LWPOLYLINE
5
124
100
AcDbEntity
8
0
100
AcDbPolyline
90
4
70
1
43
0.0
10
59.125
20
106.25
10
59.125
20
107.5
10
41.125
20
107.5
10
41.125
20
106.25
0
LWPOLYLINE
5
125
100
AcDbEntity
8
0
100
AcDbPolyline
90
4
70
1
43
0.0
10
20.624999999999993
20
106.25
10
20.624999999999993
20
107.5
10
2.6249999999999929
20
107.5
10
2.6249999999999929
20
106.25
0
LWPOLYLINE
5
126
100
AcDbEntity
8
0
100
AcDbPolyline
90
4
70
1
43
0.0
10
12.25
20
113.75
10
30.25
20
113.75
10
30.25
20
115
10
12.25
20
115
0
LWPOLYLINE
5
127
100
AcDbEntity
8
0
100
AcDbPolyline
90
4
70
1
43
0.0
10
-7.0000000000000018
20
115
10
-7.0000000000000018
20
113.75
10
10.999999999999996
20
113.75
10
10.999999999999996
20
115
0
LWPOLYLINE
5
128
100
AcDbEntity
8
0
100
AcDbPolyline
90
4
70
1
43
0.0
10
49.5
20
113.75
10
49.5
20
115
10
31.500000000000004
20
115
10
31.500000000000004
20
113.75
0
LWPOLYLINE
5
129
100
AcDbEntity
8
0
100
AcDbPolyline
90
4
70
1
43
0.0
10
39.874999999999993
20
111.25
10
39.874999999999993
20
112.5
10
21.874999999999996
20
112.5
10
21.874999999999996
20
111.25
0
LWPOLYLINE
5
130
100
AcDbEntity
8
0
100
AcDbPolyline
90
4
70
1
43
0.0
10
68.75
20
113.75
10
68.75
20
115
10
50.75
20
115
10
50.75
20
113.75
0
LWPOLYLINE
5
131
100
AcDbEntity
8
0
100
AcDbPolyline
90
4
70
1
43
0.0
10
-16.625000000000007
20
112.5
10
-16.625000000000007
20
111.25
10
1.3749999999999929
20
111.25
10
1.3749999999999929
20
112.5
0
LWPOLYLINE
5
132
100
AcDbEntity
8
0
100
AcDbPolyline
90
4
70
1
43
0.0
10
59.125
20
111.25
10
59.125
20
112.5
10
41.125
20
112.5
10
41.125
20
111.25
0
LWPOLYLINE
5
133
100
AcDbEntity
8
0
100
AcDbPolyline
90
4
70
1
43
0.0
10
20.624999999999993
20
111.25
10
20.624999999999993
20
112.5
10
2.6249999999999929
20
112.5
10
2.6249999999999929
20
111.25
0
LWPOLYLINE
5
134
100
AcDbEntity
8
0
100
AcDbPolyline
90
4
70
1
43
0.0
10
12.25
20
118.75
10
30.25
20
118.75
10
30.25
20
120
10
12.25
20
120
0
LWPOLYLINE
5
135
100
AcDbEntity
8
0
100
AcDbPolyline
90
4
70
1
43
0.0
10
-7.0000000000000018
20
120
10
-7.0000000000000018
20
118.75
10
10.999999999999996
20
118.75
10
10.999999999999996
20
120
0
LWPOLYLINE
5
136
100
AcDbEntity
8
0
100
AcDbPolyline
90
4
70
1
43
0.0
10
49.5
20
118.75
10
49.5
20
120
10
31.500000000000004
20
120
10
31.500000000000004
20
118.75
0
LWPOLYLINE
5
137
100
AcDbEntity
8
0
100
AcDbPolyline
90
4
70
1
43
0.0
10
39.874999999999993
20
116.25
10
39.874999999999993
20
117.5
10
21.874999999999996
20
117.5
10
21.874999999999996
20
116.25
0
LWPOLYLINE
5
138
100
AcDbEntity
8
0
100
AcDbPolyline
90
4
70
1
43
0.0
10
68.75
20
118.75
10
68.75
20
120
10
50.75
20
120
10
50.75
20
118.75
0
LWPOLYLINE
5
139
100
AcDbEntity
8
0
100
AcDbPolyline
90
4
70
1
43
0.0
10
-16.625000000000007
20
117.5
10
-16.625000000000007
20
116.25
10
1.3749999999999929
20
116.25
10
1.3749999999999929
20
117.5
0
LWPOLYLINE
5
140
100
AcDbEntity
8
0
100
AcDbPolyline
90
4
70
1
43
0.0
10
59.125
20
116.25
10
59.125
20
117.5
10
41.125
20
117.5
10
41.125
20
116.25
0
LWPOLYLINE
5
141
100
AcDbEntity
8
0
100
AcDbPolyline
90
4
70
1
43
0.0
10
20.624999999999993
20
116.25
10
20.624999999999993
20
117.5
10
2.6249999999999929
20
117.5
10
2.6249999999999929
20
116.25
0
LWPOLYLINE
5
142
100
AcDbEntity
8
0
100
AcDbPolyline
90
4
70
1
43
0.0
10
12.25
20
123.75
10
30.25
20
123.75
10
30.25
20
125
10
12.25
20
125
0
LWPOLYLINE
5
143
100
AcDbEntity
8
0
100
AcDbPolyline
90
4
70
1
43
0.0
10
-7.0000000000000018
20
125
10
-7.0000000000000018
20
123.75
10
10.999999999999996
20
123.75
10
10.999999999999996
20
125
0
LWPOLYLINE
5
144
100
AcDbEntity
8
0
100
AcDbPolyline
90
4
70
1
43
0.0
10
49.5
20
123.75
10
49.5
20
125
10
31.500000000000004
20
125
10
31.500000000000004
20
123.75
0
LWPOLYLINE
5
145
100
AcDbEntity
8
0
100
AcDbPolyline
90
4
70
1
43
0.0
10
39.874999999999993
20
121.25
10
39.874999999999993
20
122.5
10
21.874999999999996
20
122.5
10
21.874999999999996
20
121.25
0
LWPOLYLINE
5
146
100
AcDbEntity
8
0
100
AcDbPolyline
90
4
70
1
43
0.0
10
68.75
20
123.75
10
68.75
20
125
10
50.75
20
125
10
50.75
20
123.75
0
LWPOLYLINE
5
147
100
AcDbEntity
8
0
100
AcDbPolyline
90
4
70
1
43
0.0
10
-16.625000000000007
20
122.5
10
-16.625000000000007
20
121.25
10
1.3749999999999929
20
121.25
10
1.3749999999999929
20
122.5
0
LWPOLYLINE
5
148
100
AcDbEntity
8
0
100
AcDbPolyline
90
4
70
1
43
0.0
10
59.125
20
121.25
10
59.125
20
122.5
10
41.125
20
122.5
10
41.125
20
121.25
0
LWPOLYLINE
5
149
100
AcDbEntity
8
0
100
AcDbPolyline
90
4
70
1
43
0.0
10
20.624999999999993
20
121.25
10
20.624999999999993
20
122.5
10
2.6249999999999929
20
122.5
10
2.6249999999999929
20
121.25
0
LWPOLYLINE
5
150
100
AcDbEntity
8
0
100
AcDbPolyline
90
4
70
1
43
0.0
10
39.874999999999993
20
126.25
10
39.874999999999993
20
127.5
10
21.874999999999996
20
127.5
10
21.874999999999996
20
126.25
0
LWPOLYLINE
5
151
100
AcDbEntity
8
0
100
AcDbPolyline
90
4
70
1
43
0.0
10
68.75
20
128.75
10
68.75
20
130
10
50.75
20
130
10
50.75
20
128.75
0
LWPOLYLINE
5
152
100
AcDbEntity
8
0
100
AcDbPolyline
90
4
70
1
43
0.0
10
-16.625000000000007
20
127.5
10
-16.625000000000007
20
126.25
10
1.3749999999999929
20
126.25
10
1.3749999999999929
20
127.5
0
LWPOLYLINE
5
153
100
AcDbEntity
8
0
100
AcDbPolyline
90
4
70
1
43
0.0
10
59.125
20
126.25
10
59.125
20
127.5
10
41.125
20
127.5
10
41.125
20
126.25
0
LWPOLYLINE
5
154
100
AcDbEntity
8
0
100
AcDbPolyline
90
4
70
1
43
0.0
10
20.624999999999993
20
126.25
10
20.624999999999993
20
127.5
10
2.6249999999999929
20
127.5
10
2.6249999999999929
20
126.25
0
LWPOLYLINE
5
155
100
AcDbEntity
8
0
100
AcDbPolyline
90
4
70
1
43
0.0
10
68.75
20
133.75
10
68.75
20
135
10
50.75
20
135
10
50.75
20
133.75
0
LWPOLYLINE
5
156
100
AcDbEntity
8
0
100
AcDbPolyline
90
4
70
1
43
0.0
10
-16.625000000000007
20
132.5
10
-16.625000000000007
20
131.25
10
1.3749999999999929
20
131.25
10
1.3749999999999929
20
132.5
0
LWPOLYLINE
5
157
100
AcDbEntity
8
0
100
AcDbPolyline
90
4
70
1
43
0.0
10
68.75
20
138.75
10
68.75
20
140
10
50.75
20
140
10
50.75
20
138.75
0
LWPOLYLINE
5
158
100
AcDbEntity
8
0
100
AcDbPolyline
90
4
70
1
43
0.0
10
-16.625000000000007
20
137.5
10
-16.625000000000007
20
136.25
10
1.3749999999999929
20
136.25
10
1.3749999999999929
20
137.5
0
LWPOLYLINE
5
159
100
AcDbEntity
8
0
100
AcDbPolyline
90
4
70
1
43
0.0
10
68.75
20
143.75
10
68.75
20
145
10
50.75
20
145
10
50.75
20
143.75
0
LWPOLYLINE
5
160
100
AcDbEntity
8
0
100
AcDbPolyline
90
4
70
1
43
0.0
10
-16.625000000000007
20
142.5
10
-16.625000000000007
20
141.25
10
1.3749999999999929
20
141.25
10
1.3749999999999929
20
142.5
0
LWPOLYLINE
5
161
100
AcDbEntity
8
0
100
AcDbPolyline
90
4
70
1
43
0.0
10
12.25
20
148.75
10
30.25
20
148.75
10
30.25
20
150
10
12.25
20
150
0
LWPOLYLINE
5
162
100
AcDbEntity
8
0
100
AcDbPolyline
90
4
70
1
43
0.0
10
-7.0000000000000018
20
150
10
-7.0000000000000018
20
148.75
10
10.999999999999996
20
148.75
10
10.999999999999996
20
150
0
LWPOLYLINE
5
163
100
AcDbEntity
8
0
100
AcDbPolyline
90
4
70
1
43
0.0
10
49.5
20
148.75
10
49.5
20
150
10
31.500000000000004
20
150
10
31.500000000000004
20
148.75
0
LWPOLYLINE
5
164
100
AcDbEntity
8
0
100
AcDbPolyline
90
4
70
1
43
0.0
10
39.874999999999993
20
146.25
10
39.874999999999993
20
147.5
10
21.874999999999996
20
147.5
10
21.874999999999996
20
146.25
0
LWPOLYLINE
5
165
100
AcDbEntity
8
0
100
AcDbPolyline
90
4
70
1
43
0.0
10
68.75
20
148.75
10
68.75
20
150
10
50.75
20
150
10
50.75
20
148.75
0
LWPOLYLINE
5
166
100
AcDbEntity
8
0
100
AcDbPolyline
90
4
70
1
43
0.0
10
-16.625000000000007
20
147.5
10
-16.625000000000007
20
146.25
10
1.3749999999999929
20
146.25
10
1.3749999999999929
20
147.5
0
LWPOLYLINE
5
167
100
AcDbEntity
8
0
100
AcDbPolyline
90
4
70
1
43
0.0
10
59.125
20
146.25
10
59.125
20
147.5
10
41.125
20
147.5
10
41.125
20
146.25
0
LWPOLYLINE
5
168
100
AcDbEntity
8
0
100
AcDbPolyline
90
4
70
1
43
0.0
10
20.624999999999993
20
146.25
10
20.624999999999993
20
147.5
10
2.6249999999999929
20
147.5
10
2.6249999999999929
20
146.25
0
LWPOLYLINE
5
169
100
AcDbEntity
8
0
100
AcDbPolyline
90
4
70
1
43
0.0
10
12.25
20
153.75
10
30.25
20
153.75
10
30.25
20
155
10
12.25
20
155
0
LWPOLYLINE
5
170
100
AcDbEntity
8
0
100
AcDbPolyline
90
4
70
1
43
0.0
10
-7.0000000000000018
20
155
10
-7.0000000000000018
20
153.75
10
10.999999999999996
20
153.75
10
10.999999999999996
20
155
0
LWPOLYLINE
5
171
100
AcDbEntity
8
0
100
AcDbPolyline
90
4
70
1
43
0.0
10
49.5
20
153.75
10
49.5
20
155
10
31.500000000000004
20
155
10
31.500000000000004
20
153.75
0
LWPOLYLINE
5
172
100
AcDbEntity
8
0
100
AcDbPolyline
90
4
70
1
43
0.0
10
39.874999999999993
20
151.25
10
39.874999999999993
20
152.5
10
21.874999999999996
20
152.5
10
21.874999999999996
20
151.25
0
LWPOLYLINE
5
173
100
AcDbEntity
8
0
100
AcDbPolyline
90
4
70
1
43
0.0
10
68.75
20
153.75
10
68.75
20
155
10
50.75
20
155
10
50.75
20
153.75
0
LWPOLYLINE
5
174
100
AcDbEntity
8
0
100
AcDbPolyline
90
4
70
1
43
0.0
10
-16.625000000000007
20
152.5
10
-16.625000000000007
20
151.25
10
1.3749999999999929
20
151.25
10
1.3749999999999929
20
152.5
0
LWPOLYLINE
5
175
100
AcDbEntity
8
0
100
AcDbPolyline
90
4
70
1
43
0.0
10
59.125
20
151.25
10
59.125
20
152.5
10
41.125
20
152.5
10
41.125
20
151.25
0
LWPOLYLINE
5
176
100
AcDbEntity
8
0
100
AcDbPolyline
90
4
70
1
43
0.0
10
1.3749999999999929
20
186.25
10
1.3749999999999929
20
187.5
10
-16.625000000000007
20
187.5
10
-16.625000000000007
20
186.25
0
LWPOLYLINE
5
177
100
AcDbEntity
8
0
100
AcDbPolyline
90
4
70
1
43
0.0
10
68.75
20
163.75
10
68.75
20
165
10
50.75
20
165
10
50.75
20
163.75
0
LWPOLYLINE
5
178
100
AcDbEntity
8
0
100
AcDbPolyline
90
4
70
1
43
0.0
10
-16.625000000000007
20
162.5
10
-16.625000000000007
20
161.25
10
1.3749999999999929
20
161.25
10
1.3749999999999929
20
162.5
0
LWPOLYLINE
5
179
100
AcDbEntity
8
0
100
AcDbPolyline
90
4
70
1
43
0.0
10
59.125
20
161.25
10
59.125
20
162.5
10
41.125
20
162.5
10
41.125
20
161.25
0
LWPOLYLINE
5
180
100
AcDbEntity
8
0
100
AcDbPolyline
90
4
70
1
43
0.0
10
20.624999999999993
20
161.25
10
20.624999999999993
20
162.5
10
2.6249999999999929
20
162.5
10
2.6249999999999929
20
161.25
0
LWPOLYLINE
5
181
100
AcDbEntity
8
0
100
AcDbPolyline
90
4
70
1
43
0.0
10
12.25
20
168.75
10
30.25
20
168.75
10
30.25
20
170
10
12.25
20
170
0
LWPOLYLINE
5
182
100
AcDbEntity
8
0
100
AcDbPolyline
90
4
70
1
43
0.0
10
-7.0000000000000018
20
170
10
-7.0000000000000018
20
168.75
10
10.999999999999996
20
168.75
10
10.999999999999996
20
170
0
LWPOLYLINE
5
183
100
AcDbEntity
8
0
100
AcDbPolyline
90
4
70
1
43
0.0
10
49.5
20
168.75
10
49.5
20
170
10
31.500000000000004
20
170
10
31.500000000000004
20
168.75
0
LWPOLYLINE
5
184
100
AcDbEntity
8
0
100
AcDbPolyline
90
4
70
1
43
0.0
10
39.874999999999993
20
161.25
10
39.874999999999993
20
162.5
10
21.874999999999996
20
162.5
10
21.874999999999996
20
161.25
0
LWPOLYLINE
5
185
100
AcDbEntity
8
0
100
AcDbPolyline
90
4
70
1
43
0.0
10
49.5
20
163.75
10
49.5
20
165
10
31.500000000000004
20
165
10
31.500000000000004
20
163.75
0
CIRCLE
5
186
100
AcDbEntity
8
0
100
AcDbCircle
10
54.499999843537807
20
30.000000447034836
30
0
40
2.2499999999999964
210
0
220
-0
230
1
0
CIRCLE
5
187
100
AcDbEntity
8
0
100
AcDbCircle
10
-5.5000001564621925
20
-30.000000447034836
30
0
40
2.25
210
0
220
-0
230
1
0
CIRCLE
5
188
100
AcDbEntity
8
0
100
AcDbCircle
10
9.4999998435378075
20
-30.000000447034836
30
0
40
2.2499999999999987
210
0
220
-0
230
1
0
CIRCLE
5
189
100
AcDbEntity
8
0
100
AcDbCircle
10
54.499999843537807
20
-30.000000447034836
30
0
40
2.2499999999999964
210
0
220
-0
230
1
0
CIRCLE
5
190
100
AcDbEntity
8
0
100
AcDbCircle
10
39.499999843537807
20
-30.000000447034836
30
0
40
2.2500000000000009
210
0
220
-0
230
1
0
LWPOLYLINE
5
191
100
AcDbEntity
8
0
100
AcDbPolyline
90
4
70
1
43
0.0
10
-16.625000000000007
20
157.5
10
-16.625000000000007
20
156.25
10
1.3749999999999929
20
156.25
10
1.3749999999999929
20
157.5
0
CIRCLE
5
192
100
AcDbEntity
8
0
100
AcDbCircle
10
24.499999843537807
20
-30.000000447034836
30
0
40
5
210
0
220
-0
230
1
0
LWPOLYLINE
5
193
100
AcDbEntity
8
0
100
AcDbPolyline
90
4
70
1
43
0.0
10
68.75
20
158.75
10
68.75
20
160
10
50.75
20
160
10
50.75
20
158.75
0
LWPOLYLINE
5
194
100
AcDbEntity
8
0
100
AcDbPolyline
90
4
70
1
43
0.0
10
39.874999999999993
20
156.25
10
39.874999999999993
20
157.5
10
21.874999999999996
20
157.5
10
21.874999999999996
20
156.25
0
LWPOLYLINE
5
195
100
AcDbEntity
8
0
100
AcDbPolyline
90
4
70
1
43
0.0
10
49.5
20
158.75
10
49.5
20
160
10
31.500000000000004
20
160
10
31.500000000000004
20
158.75
0
LWPOLYLINE
5
196
100
AcDbEntity
8
0
100
AcDbPolyline
90
4
70
1
43
0.0
10
-7.0000000000000018
20
160
10
-7.0000000000000018
20
158.75
10
10.999999999999996
20
158.75
10
10.999999999999996
20
160
0
LWPOLYLINE
5
197
100
AcDbEntity
8
0
100
AcDbPolyline
90
4
70
1
43
0.0
10
12.25
20
158.75
10
30.25
20
158.75
10
30.25
20
160
10
12.25
20
160
0
LWPOLYLINE
5
198
100
AcDbEntity
8
0
100
AcDbPolyline
90
4
70
1
43
0.0
10
20.624999999999993
20
151.25
10
20.624999999999993
20
152.5
10
2.6249999999999929
20
152.5
10
2.6249999999999929
20
151.25
0
CIRCLE
5
199
100
AcDbEntity
8
0
100
AcDbCircle
10
39.499999843537807
20
30.000000447034836
30
0
40
2.2500000000000009
210
0
220
-0
230
1
0
CIRCLE
5
200
100
AcDbEntity
8
0
100
AcDbCircle
10
24.499999843537807
20
30.000000447034836
30
0
40
5
210
0
220
-0
230
1
0
CIRCLE
5
201
100
AcDbEntity
8
0
100
AcDbCircle
10
9.4999998435378075
20
30.000000447034836
30
0
40
2.2499999999999987
210
0
220
-0
230
1
0
CIRCLE
5
202
100
AcDbEntity
8
0
100
AcDbCircle
10
-5.5000001564621925
20
30.000000447034836
30
0
40
2.25
210
0
220
-0
230
1
0
LWPOLYLINE
5
203
100
AcDbEntity
8
0
100
AcDbPolyline
90
4
70
1
43
0.0
10
68.75
20
188.75
10
68.75
20
190
10
50.75
20
190
10
50.75
20
188.75
0
LWPOLYLINE
5
204
100
AcDbEntity
8
0
100
AcDbPolyline
90
4
70
1
43
0.0
10
49.5
20
190
10
31.500000000000004
20
190
10
31.500000000000004
20
188.75
10
49.5
20
188.75
0
LWPOLYLINE
5
205
100
AcDbEntity
8
0
100
AcDbPolyline
90
4
70
1
43
0.0
10
59.125
20
186.25
10
59.125
20
187.5
10
41.125
20
187.5
10
41.125
20
186.25
0
LWPOLYLINE
5
206
100
AcDbEntity
8
0
100
AcDbPolyline
90
4
70
1
43
0.0
10
30.25
20
190
10
12.25
20
190
10
12.25
20
188.75
10
30.25
20
188.75
0
LWPOLYLINE
5
207
100
AcDbEntity
8
0
100
AcDbPolyline
90
4
70
1
43
0.0
10
39.874999999999993
20
186.25
10
39.874999999999993
20
187.5
10
21.874999999999996
20
187.5
10
21.874999999999996
20
186.25
0
LWPOLYLINE
5
208
100
AcDbEntity
8
0
100
AcDbPolyline
90
4
70
1
43
0.0
10
10.999999999999996
20
190
10
-7.0000000000000018
20
190
10
-7.0000000000000018
20
188.75
10
10.999999999999996
20
188.75
0
LWPOLYLINE
5
209
100
AcDbEntity
8
0
100
AcDbPolyline
90
4
70
1
43
0.0
10
-7.0000000000000018
20
165
10
-7.0000000000000018
20
163.75
10
10.999999999999996
20
163.75
10
10.999999999999996
20
165
0
LWPOLYLINE
5
210
100
AcDbEntity
8
0
100
AcDbPolyline
90
4
70
1
43
0.0
10
39.874999999999993
20
166.25
10
39.874999999999993
20
167.5
10
21.874999999999996
20
167.5
10
21.874999999999996
20
166.25
0
LWPOLYLINE
5
211
100
AcDbEntity
8
0
100
AcDbPolyline
90
4
70
1
43
0.0
10
-16.625000000000007
20
167.5
10
-16.625000000000007
20
166.25
10
1.3749999999999929
20
166.25
10
1.3749999999999929
20
167.5
0
LWPOLYLINE
5
212
100
AcDbEntity
8
0
100
AcDbPolyline
90
4
70
1
43
0.0
10
59.125
20
166.25
10
59.125
20
167.5
10
41.125
20
167.5
10
41.125
20
166.25
0
LWPOLYLINE
5
213
100
AcDbEntity
8
0
100
AcDbPolyline
90
4
70
1
43
0.0
10
20.624999999999993
20
166.25
10
20.624999999999993
20
167.5
10
2.6249999999999929
20
167.5
10
2.6249999999999929
20
166.25
0
LWPOLYLINE
5
214
100
AcDbEntity
8
0
100
AcDbPolyline
90
4
70
1
43
0.0
10
12.25
20
173.75
10
30.25
20
173.75
10
30.25
20
175
10
12.25
20
175
0
LWPOLYLINE
5
215
100
AcDbEntity
8
0
100
AcDbPolyline
90
4
70
1
43
0.0
10
-7.0000000000000018
20
175
10
-7.0000000000000018
20
173.75
10
10.999999999999996
20
173.75
10
10.999999999999996
20
175
0
LWPOLYLINE
5
216
100
AcDbEntity
8
0
100
AcDbPolyline
90
4
70
1
43
0.0
10
49.5
20
173.75
10
49.5
20
175
10
31.500000000000004
20
175
10
31.500000000000004
20
173.75
0
LWPOLYLINE
5
217
100
AcDbEntity
8
0
100
AcDbPolyline
90
4
70
1
43
0.0
10
39.874999999999993
20
171.25
10
39.874999999999993
20
172.5
10
21.874999999999996
20
172.5
10
21.874999999999996
20
171.25
0
LWPOLYLINE
5
218
100
AcDbEntity
8
0
100
AcDbPolyline
90
4
70
1
43
0.0
10
68.75
20
173.75
10
68.75
20
175
10
50.75
20
175
10
50.75
20
173.75
0
LWPOLYLINE
5
219
100
AcDbEntity
8
0
100
AcDbPolyline
90
4
70
1
43
0.0
10
-16.625000000000007
20
172.5
10
-16.625000000000007
20
171.25
10
1.3749999999999929
20
171.25
10
1.3749999999999929
20
172.5
0
LWPOLYLINE
5
220
100
AcDbEntity
8
0
100
AcDbPolyline
90
4
70
1
43
0.0
10
59.125
20
171.25
10
59.125
20
172.5
10
41.125
20
172.5
10
41.125
20
171.25
0
LWPOLYLINE
5
221
100
AcDbEntity
8
0
100
AcDbPolyline
90
4
70
1
43
0.0
10
20.624999999999993
20
171.25
10
20.624999999999993
20
172.5
10
2.6249999999999929
20
172.5
10
2.6249999999999929
20
171.25
0
LWPOLYLINE
5
222
100
AcDbEntity
8
0
100
AcDbPolyline
90
4
70
1
43
0.0
10
12.25
20
178.75
10
30.25
20
178.75
10
30.25
20
180
10
12.25
20
180
0
LWPOLYLINE
5
223
100
AcDbEntity
8
0
100
AcDbPolyline
90
4
70
1
43
0.0
10
-7.0000000000000018
20
180
10
-7.0000000000000018
20
178.75
10
10.999999999999996
20
178.75
10
10.999999999999996
20
180
0
LWPOLYLINE
5
224
100
AcDbEntity
8
0
100
AcDbPolyline
90
4
70
1
43
0.0
10
49.5
20
178.75
10
49.5
20
180
10
31.500000000000004
20
180
10
31.500000000000004
20
178.75
0
LWPOLYLINE
5
225
100
AcDbEntity
8
0
100
AcDbPolyline
90
4
70
1
43
0.0
10
39.874999999999993
20
176.25
10
39.874999999999993
20
177.5
10
21.874999999999996
20
177.5
10
21.874999999999996
20
176.25
0
LWPOLYLINE
5
226
100
AcDbEntity
8
0
100
AcDbPolyline
90
4
70
1
43
0.0
10
68.75
20
178.75
10
68.75
20
180
10
50.75
20
180
10
50.75
20
178.75
0
LWPOLYLINE
5
227
100
AcDbEntity
8
0
100
AcDbPolyline
90
4
70
1
43
0.0
10
-16.625000000000007
20
177.5
10
-16.625000000000007
20
176.25
10
1.3749999999999929
20
176.25
10
1.3749999999999929
20
177.5
0
LWPOLYLINE
5
228
100
AcDbEntity
8
0
100
AcDbPolyline
90
4
70
1
43
0.0
10
59.125
20
176.25
10
59.125
20
177.5
10
41.125
20
177.5
10
41.125
20
176.25
0
LWPOLYLINE
5
229
100
AcDbEntity
8
0
100
AcDbPolyline
90
4
70
1
43
0.0
10
20.624999999999993
20
176.25
10
20.624999999999993
20
177.5
10
2.6249999999999929
20
177.5
10
2.6249999999999929
20
176.25
0
LWPOLYLINE
5
230
100
AcDbEntity
8
0
100
AcDbPolyline
90
4
70
1
43
0.0
10
12.25
20
183.75
10
30.25
20
183.75
10
30.25
20
185
10
12.25
20
185
0
LWPOLYLINE
5
231
100
AcDbEntity
8
0
100
AcDbPolyline
90
4
70
1
43
0.0
10
-7.0000000000000018
20
185
10
-7.0000000000000018
20
183.75
10
10.999999999999996
20
183.75
10
10.999999999999996
20
185
0
LWPOLYLINE
5
232
100
AcDbEntity
8
0
100
AcDbPolyline
90
4
70
1
43
0.0
10
49.5
20
183.75
10
49.5
20
185
10
31.500000000000004
20
185
10
31.500000000000004
20
183.75
0
LWPOLYLINE
5
233
100
AcDbEntity
8
0
100
AcDbPolyline
90
4
70
1
43
0.0
10
39.874999999999993
20
181.25
10
39.874999999999993
20
182.5
10
21.874999999999996
20
182.5
10
21.874999999999996
20
181.25
0
LWPOLYLINE
5
234
100
AcDbEntity
8
0
100
AcDbPolyline
90
4
70
1
43
0.0
10
68.75
20
183.75
10
68.75
20
185
10
50.75
20
185
10
50.75
20
183.75
0
LWPOLYLINE
5
235
100
AcDbEntity
8
0
100
AcDbPolyline
90
4
70
1
43
0.0
10
-16.625000000000007
20
182.5
10
-16.625000000000007
20
181.25
10
1.3749999999999929
20
181.25
10
1.3749999999999929
20
182.5
0
LWPOLYLINE
5
236
100
AcDbEntity
8
0
100
AcDbPolyline
90
4
70
1
43
0.0
10
59.125
20
181.25
10
59.125
20
182.5
10
41.125
20
182.5
10
41.125
20
181.25
0
LWPOLYLINE
5
237
100
AcDbEntity
8
0
100
AcDbPolyline
90
4
70
1
43
0.0
10
68.75
20
168.75
10
68.75
20
170
10
50.75
20
170
10
50.75
20
168.75
0
LWPOLYLINE
5
238
100
AcDbEntity
8
0
100
AcDbPolyline
90
4
70
1
43
0.0
10
20.624999999999993
20
186.25
10
20.624999999999993
20
187.5
10
2.6249999999999929
20
187.5
10
2.6249999999999929
20
186.25
0
LWPOLYLINE
5
239
100
AcDbEntity
8
0
100
AcDbPolyline
90
4
70
1
43
0.0
10
20.624999999999993
20
181.25
10
20.624999999999993
20
182.5
10
2.6249999999999929
20
182.5
10
2.6249999999999929
20
181.25
0
LWPOLYLINE
5
240
100
AcDbEntity
8
0
100
AcDbPolyline
90
265
70
1
43
0.0
10
67
20
-20.068568254366077
10
66.999999999999986
20
-99.968568254366076
10
-18.000000312924385
20
-99.968568254366076
10
-18.000000312924385
20
-20.099999982699018
10
-21.000000312924385
20
-20.099999982699018
10
-21.000000312924385
20
10.100000017300982
10
-18.000000312924385
20
10.100000017300982
10
-18.000000312924385
20
39.900000017300989
10
-21.000000312924385
20
39.900000017300989
10
-21.000000312924385
20
70.100000017300985
10
-18.000000312924385
20
70.100000017300985
10
-18.000000312924385
20
100
10
-21.000000312924385
20
100
10
-20.998684523508722
20
101.25
10
-17.875000000000007
20
101.25
10
-17.875000000000007
20
102.5
10
-20.997368734074847
20
102.5
10
-20.996052944640965
20
103.75
10
-8.2500000000000018
20
103.75
10
-8.2500000000000018
20
105
10
-20.99473715520709
20
105
10
-20.993421365773216
20
106.25
10
-17.875000000000007
20
106.25
10
-17.875000000000007
20
107.5
10
-20.992105576339341
20
107.5
10
-20.990789786905463
20
108.75
10
-8.2500000000000018
20
108.75
10
-8.2500000000000018
20
110
10
-20.989473997471588
20
110
10
-20.988158208037714
20
111.25
10
-17.875000000000007
20
111.25
10
-17.875000000000007
20
112.5
10
-20.986842418603832
20
112.5
10
-20.985526629169957
20
113.75
10
-8.2500000000000018
20
113.75
10
-8.2500000000000018
20
115
10
-20.984210839736082
20
115
10
-20.982895050302204
20
116.25
10
-17.875000000000007
20
116.25
10
-17.875000000000007
20
117.5
10
-20.98157926086833
20
117.5
10
-20.980263471434455
20
118.75
10
-8.2500000000000018
20
118.75
10
-8.2500000000000018
20
120
10
-20.978947682000573
20
120
10
-20.977631892566698
20
121.25
10
-17.875000000000007
20
121.25
10
-17.875000000000007
20
122.5
10
-20.976316103132824
20
122.5
10
-20.975000313698949
20
123.75
10
-8.2500000000000018
20
123.75
10
-8.2500000000000018
20
125
10
-20.973684524265074
20
125
10
-20.972368734831196
20
126.25
10
-17.875000000000007
20
126.25
10
-17.875000000000007
20
127.5
10
-20.971052945397322
20
127.5
10
-20.969737155963443
20
128.75
10
-8.2500000000000018
20
128.75
10
-8.2500000000000018
20
130
10
-20.968421366529565
20
130
10
-20.96710557709569
20
131.25
10
-17.875000000000007
20
131.25
10
-17.875000000000007
20
132.5
10
-20.965789787661816
20
132.5
10
-20.964473998227938
20
133.75
10
-8.2500000000000018
20
133.75
10
-8.2500000000000018
20
135
10
-20.963158208794063
20
135
10
-20.961842419360185
20
136.25
10
-17.875000000000007
20
136.25
10
-17.875000000000007
20
137.5
10
-20.960526629926306
20
137.5
10
-20.959210840492432
20
138.75
10
-8.2500000000000018
20
138.75
10
-8.2500000000000018
20
140
10
-20.957895051058557
20
140
10
-20.956579261624682
20
141.25
10
-17.875000000000007
20
141.25
10
-17.875000000000007
20
142.5
10
-20.955263472190808
20
142.5
10
-20.95394768275693
20
143.75
10
-8.2500000000000018
20
143.75
10
-8.2500000000000018
20
145
10
-20.952631893323051
20
145
10
-20.951316103889177
20
146.25
10
-17.875000000000007
20
146.25
10
-17.875000000000007
20
147.5
10
-20.950000314455298
20
147.5
10
-20.948684525021424
20
148.75
10
-8.2500000000000018
20
148.75
10
-8.2500000000000018
20
150
10
-20.947368735587549
20
150
10
-20.946052946153671
20
151.25
10
-17.875000000000007
20
151.25
10
-17.875000000000007
20
152.5
10
-20.944737156719796
20
152.5
10
-20.943421367285918
20
153.75
10
-8.2500000000000018
20
153.75
10
-8.2500000000000018
20
155
10
-20.94210557785204
20
155
10
-20.940789788418165
20
156.25
10
-17.875000000000007
20
156.25
10
-17.875000000000007
20
157.5
10
-20.93947399898429
20
157.5
10
-20.938158209550416
20
158.75
10
-8.2500000000000018
20
158.75
10
-8.2500000000000018
20
160
10
-20.936842420116541
20
160
10
-20.935526630682659
20
161.25
10
-17.875000000000007
20
161.25
10
-17.875000000000007
20
162.5
10
-20.934210841248785
20
162.5
10
-20.93289505181491
20
163.75
10
-8.2500000000000018
20
163.75
10
-8.2500000000000018
20
165
10
-20.931579262381032
20
165
10
-20.930263472947157
20
166.25
10
-17.875000000000007
20
166.25
10
-17.875000000000007
20
167.5
10
-20.928947683513282
20
167.5
10
-20.927631894079404
20
168.75
10
-8.2500000000000018
20
168.75
10
-8.2500000000000018
20
170
10
-20.926316104645526
20
170
10
-20.925000315211651
20
171.25
10
-17.875000000000007
20
171.25
10
-17.875000000000007
20
172.5
10
-20.923684525777773
20
172.5
10
-20.922368736343898
20
173.75
10
-8.2500000000000018
20
173.75
10
-8.2500000000000018
20
175
10
-20.921052946910024
20
175
10
-20.919737157476149
20
176.25
10
-17.875000000000007
20
176.25
10
-17.875000000000007
20
177.5
10
-20.918421368042274
20
177.5
10
-20.917105578608393
20
178.75
10
-8.2500000000000018
20
178.75
10
-8.2500000000000018
20
180
10
-20.915789789174518
20
180
10
-20.914473999740643
20
181.25
10
-17.875000000000007
20
181.25
10
-17.875000000000007
20
182.5
10
-20.913158210306765
20
182.5
10
-20.91184242087289
20
183.75
10
-8.2500000000000018
20
183.75
10
-8.2500000000000018
20
185
10
-20.910526631439016
20
185
10
-20.90921084200513
20
186.25
10
-17.875000000000007
20
186.25
10
-17.875000000000007
20
187.5
10
-20.907895052571256
20
187.5
10
-20.906579263137385
20
188.75
10
-8.2499999640890476
20
188.75
10
-8.2499999638506161
20
189.99848938122156
10
-20.905251041390471
20
190.01181069774231
10
-20.900000312924387
20
195.00000289143821
10
-20.900000312924387
20
200.0031943253806
10
-18.000000312924385
20
200.0031943253806
10
-18.000000312924385
20
215.0031943253806
10
-20.900000312924387
20
215.0031943253806
10
-20.900000312924387
20
230.20319432538059
10
-18.000000312924385
20
230.20319432538059
10
-18.000000312924385
20
245.0031943253806
10
-9.7258672526069248
20
245.0031943253806
10
-9.7258672526069212
20
202
42
0.41421356237309404
10
-7.7258672526069283
20
200
10
-7.0000000000000009
20
200.00000000000006
42
0.41421356237310597
10
-5.0000000000000782
20
202
10
-5
20
245.0031943253806
10
55
20
245.0031943253806
10
54.999999999999993
20
202
42
0.4142135623730937
10
56.999999999999993
20
200
10
58
20
200
42
0.41421356237309503
10
59.999999999999993
20
202
10
60
20
245.0031943253806
10
67
20
245.0031943253806
10
67
20
230.10319432538063
10
70
20
230.10319432538063
10
70
20
214.90319432538061
10
67.0000009983778
20
214.90319432538061
10
67.0000009983778
20
199.90319432538061
10
70
20
199.90319432538061
10
70
20
187.5
10
60.375
20
187.5
10
60.375
20
186.25
10
70
20
186.25
10
70
20
182.5
10
60.375
20
182.5
10
60.375
20
181.25
10
70
20
181.25
10
70
20
177.5
10
60.375
20
177.5
10
60.375
20
176.25
10
70
20
176.25
10
70
20
172.5
10
60.375
20
172.5
10
60.375
20
171.25
10
70
20
171.25
10
70
20
167.5
10
60.375
20
167.5
10
60.375
20
166.25
10
70
20
166.25
10
70
20
162.5
10
60.375
20
162.5
10
60.375
20
161.25
10
70
20
161.25
10
70
20
157.5
10
60.375
20
157.5
10
60.375
20
156.25
10
70
20
156.25
10
70
20
152.5
10
60.375
20
152.5
10
60.375
20
151.25
10
70
20
151.25
10
70
20
147.5
10
60.375
20
147.5
10
60.375
20
146.25
10
70
20
146.25
10
70
20
142.5
10
60.375
20
142.5
10
60.375
20
141.25
10
70
20
141.25
10
70
20
137.5
10
60.375
20
137.5
10
60.375
20
136.25
10
70
20
136.25
10
70
20
132.5
10
60.375
20
132.5
10
60.375
20
131.25
10
70
20
131.25
10
70
20
127.5
10
60.375
20
127.5
10
60.375
20
126.25
10
70
20
126.25
10
70
20
122.5
10
60.375
20
122.5
10
60.375
20
121.25
10
70
20
121.25
10
70
20
117.5
10
60.375
20
117.5
10
60.375
20
116.25
10
70
20
116.25
10
70
20
112.5
10
60.375
20
112.5
10
60.375
20
111.25
10
70
20
111.25
10
70
20
107.5
10
60.375
20
107.5
10
60.375
20
106.25
10
70
20
106.25
10
70
20
102.5
10
60.375
20
102.5
10
60.375
20
101.25
10
70
20
101.25
10
69.999999999999986
20
100.03143174563392
10
67
20
100.03143174563392
10
67
20
70.131431745633932
10
69.999999999999986
20
70.131431745633932
10
69.999999999999986
20
39.93143174563393
10
67
20
39.93143174563393
10
67
20
10.131431745633922
10
69.999999999999986
20
10.131431745633922
10
69.999999999999986
20
-20.068568254366077
0
ENDSEC
0
SECTION
2
OBJECTS
0
DICTIONARY
5
C
100
AcDbDictionary
3
ACAD_GROUP
350
D
3
ACAD_MLINESTYLE
350
17
0
DICTIONARY
5
D
100
AcDbDictionary
0
DICTIONARY
5
1A
330
C
100
AcDbDictionary
0
DICTIONARY
5
17
100
AcDbDictionary
0
ENDSEC
0
EOF
